<svg width="45" height="45" viewBox="0 0 45 45" fill="none" xmlns="http://www.w3.org/2000/svg">
<path d="M5.3 5H39.675L37.325 2.5H7.325L5.3 5ZM43.85 5.575C44.575 6.425 45 7.5 45 8.75V40C45 41.3261 44.4732 42.5979 43.5355 43.5355C42.5979 44.4732 41.3261 45 40 45H5C3.67392 45 2.40215 44.4732 1.46447 43.5355C0.526784 42.5979 0 41.3261 0 40V8.75C0 7.5 0.425 6.425 1.15 5.575L4.6 1.375C5.3 0.525 6.325 0 7.5 0H37.5C38.675 0 39.7 0.525 40.375 1.375L43.85 5.575ZM7.5 37.5H22.5V30H7.5V37.5Z" fill="currentColor"/>
</svg>
