<svg width="40" height="40" viewBox="0 0 40 40" fill="none" xmlns="http://www.w3.org/2000/svg">
<path fill-rule="evenodd" clip-rule="evenodd" d="M31.5044 1.27847C31.7041 0.793357 32.0828 0.402247 32.5632 0.185011C33.0436 -0.0322239 33.5893 -0.0591964 34.0891 0.109602C34.5888 0.2784 35.0048 0.630235 35.2521 1.09326C35.4993 1.55628 35.5593 2.09556 35.4196 2.60096L35.3409 2.8272L29.9341 16.0315L31.2951 16.3915C33.4703 16.9694 35.2808 18.7238 35.6247 21.1179C35.9188 23.1746 36.1943 26.3009 35.8153 29.5218C35.4382 32.7138 34.3859 36.2638 31.7819 38.8717C30.8249 39.8302 29.4515 39.9824 28.5234 39.9988C27.4648 40.0153 26.2447 39.8549 24.9914 39.6081C22.4724 39.1103 19.45 38.1889 16.5933 37.2099L15.7357 36.9117L14.0516 36.307L12.4357 35.7085L10.9152 35.1264L8.88925 34.3284C7.74531 33.8739 6.60724 33.4049 5.47534 32.9216C5.14612 32.7799 4.8596 32.5558 4.64386 32.2711C4.42811 31.9865 4.29052 31.6511 4.24458 31.2978C4.19863 30.9445 4.24591 30.5854 4.38177 30.2556C4.51763 29.9259 4.73741 29.6369 5.0196 29.4169C7.87419 27.1956 10.5506 24.6411 12.8128 22.282L13.9065 21.122C14.0861 20.9314 14.2594 20.7436 14.4265 20.5584L15.4043 19.4745L15.86 18.9562L17.0905 17.5268L17.7886 16.6918C18.5196 15.8013 19.4794 15.1236 20.5663 14.73C21.6533 14.3365 22.8272 14.2418 23.9639 14.4561L24.3762 14.5507L25.9029 14.9559L31.5044 1.27847ZM23.3031 18.5243C22.8832 18.4203 22.4421 18.4383 22.0322 18.5762C21.6224 18.714 21.261 18.9659 20.9912 19.3018L20.4879 19.9044L31.6701 22.8785L31.5727 22.0722L31.5209 21.6979C31.4464 21.1775 31.0755 20.688 30.4644 20.4433L30.2241 20.3651L23.3031 18.5243ZM7.2403 11.7741L7.37288 12.062C7.93777 13.2222 8.82744 14.1962 9.93539 14.8674L10.1425 14.9867C10.1641 14.999 10.1819 15.0166 10.1944 15.0379C10.2068 15.0592 10.2134 15.0834 10.2134 15.1081C10.2134 15.1327 10.2068 15.1569 10.1944 15.1782C10.1819 15.1995 10.1641 15.2172 10.1425 15.2294L9.93539 15.3487C8.82761 16.0213 7.93863 16.9968 7.37495 18.1582L7.24237 18.4441C7.23088 18.4701 7.21203 18.4921 7.18812 18.5076C7.16421 18.5231 7.13628 18.5314 7.10772 18.5314C7.07917 18.5314 7.05123 18.5231 7.02732 18.5076C7.00341 18.4921 6.98456 18.4701 6.97307 18.4441L6.84049 18.1562C6.2756 16.996 5.38593 16.022 4.27799 15.3508L4.07083 15.2315C4.04931 15.2192 4.03142 15.2015 4.01899 15.1802C4.00655 15.1589 4 15.1347 4 15.1101C4 15.0855 4.00655 15.0613 4.01899 15.04C4.03142 15.0187 4.04931 15.001 4.07083 14.9888L4.27799 14.8695C5.385 14.1965 6.27323 13.2211 6.83635 12.06L6.96893 11.7741C6.98042 11.7481 6.99927 11.726 7.02318 11.7105C7.04709 11.695 7.07502 11.6868 7.10358 11.6868C7.13213 11.6868 7.16007 11.695 7.18398 11.7105C7.20789 11.726 7.22881 11.7481 7.2403 11.7741ZM13.1069 1.78032C13.1898 1.59521 13.4508 1.59521 13.5337 1.78032L13.745 2.23692C14.6458 4.0831 16.0624 5.63311 17.8259 6.70212L18.1512 6.8934C18.1861 6.91261 18.2153 6.94077 18.2356 6.97495C18.2559 7.00913 18.2666 7.04808 18.2666 7.08776C18.2666 7.12744 18.2559 7.16639 18.2356 7.20057C18.2153 7.23476 18.1861 7.26291 18.1512 7.28212L17.8238 7.47134C16.0601 8.54091 14.6434 10.0917 13.7429 11.9386L13.5357 12.3952C13.5175 12.4366 13.4875 12.4718 13.4494 12.4965C13.4113 12.5212 13.3668 12.5343 13.3213 12.5343C13.2758 12.5343 13.2313 12.5212 13.1933 12.4965C13.1552 12.4718 13.1252 12.4366 13.1069 12.3952L12.8956 11.9386C11.9951 10.0917 10.5785 8.54091 8.81468 7.47134L8.48737 7.28212C8.4524 7.26291 8.42326 7.23476 8.40296 7.20057C8.38266 7.16639 8.37196 7.12744 8.37196 7.08776C8.37196 7.04808 8.38266 7.00913 8.40296 6.97495C8.42326 6.94077 8.4524 6.91261 8.48737 6.8934L8.81675 6.70212C10.5802 5.63311 11.9969 4.0831 12.8977 2.23692L13.1049 1.78032H13.1069Z" fill="currentColor"/>
</svg>
