<svg viewBox="0 0 24 24" xmlns="http://www.w3.org/2000/svg" fill="currentColor">
  <g transform="translate(2,3)">
    <path d="M16.8421 0C17.4005 0 17.9359 0.237053 18.3308 0.65901C18.7256 1.08097 18.9474 1.65326 18.9474 2.25V3.375H12.6316C11.2357 3.375 9.897 3.96763 8.90996 5.02252C7.92293 6.07742 7.36842 7.50816 7.36842 9C7.36842 10.4918 7.92293 11.9226 8.90996 12.9775C9.897 14.0324 11.2357 14.625 12.6316 14.625H18.9474V15.75C18.9474 16.3467 18.7256 16.919 18.3308 17.341C17.9359 17.7629 17.4005 18 16.8421 18H2.10526C1.54691 18 1.01143 17.7629 0.616617 17.341C0.221804 16.919 0 16.3467 0 15.75V2.25C0 1.65326 0.221804 1.08097 0.616617 0.65901C1.01143 0.237053 1.54691 0 2.10526 0H16.8421ZM17.8947 5.625C18.4531 5.625 18.9886 5.86205 19.3834 6.28401C19.7782 6.70597 20 7.27826 20 7.875V10.125C20 10.7217 19.7782 11.294 19.3834 11.716C18.9886 12.1379 18.4531 12.375 17.8947 12.375H12.6316C11.7941 12.375 10.9908 12.0194 10.3986 11.3865C9.80639 10.7536 9.47368 9.89511 9.47368 9C9.47368 8.10489 9.80639 7.24645 10.3986 6.61351C10.9908 5.98058 11.7941 5.625 12.6316 5.625H17.8947ZM12.6316 7.875C12.3524 7.875 12.0847 7.99353 11.8873 8.2045C11.6898 8.41548 11.5789 8.70163 11.5789 9C11.5789 9.29837 11.6898 9.58452 11.8873 9.7955C12.0847 10.0065 12.3524 10.125 12.6316 10.125C12.9108 10.125 13.1785 10.0065 13.3759 9.7955C13.5733 9.58452 13.6842 9.29837 13.6842 9C13.6842 8.70163 13.5733 8.41548 13.3759 8.2045C13.1785 7.99353 12.9108 7.875 12.6316 7.875Z"/>
  </g>
</svg>