<svg width="16" height="16" viewBox="-1.6 -2.3 18 21" fill="none" xmlns="http://www.w3.org/2000/svg">
<path d="M0 14.96V5.92057C0 5.65434 0.0655237 5.40232 0.196571 5.16451C0.327619 4.9267 0.50819 4.73084 0.738286 4.57693L6.89257 0.335912C7.21486 0.111971 7.58286 0 7.99657 0C8.41029 0 8.78057 0.111971 9.10743 0.335912L15.2617 4.57589C15.4926 4.7298 15.6731 4.92601 15.8034 5.16451C15.9345 5.40232 16 5.65434 16 5.92057V14.96C16 15.2387 15.8861 15.4817 15.6583 15.689C15.4305 15.8963 15.1634 16 14.8571 16H10.9897C10.7276 16 10.5082 15.9196 10.3314 15.7587C10.1547 15.5972 10.0663 15.3975 10.0663 15.1597V10.2001C10.0663 9.96226 9.97791 9.76293 9.80114 9.60208C9.62362 9.44054 9.40419 9.35977 9.14286 9.35977H6.85714C6.59581 9.35977 6.37676 9.44054 6.2 9.60208C6.02248 9.76293 5.93371 9.96226 5.93371 10.2001V15.1607C5.93371 15.3985 5.84533 15.5979 5.66857 15.7587C5.49181 15.9196 5.27276 16 5.01143 16H1.14286C0.836571 16 0.569524 15.8963 0.341714 15.689C0.113905 15.4817 0 15.2387 0 14.96Z" fill="currentColor"/>
</svg>
