<svg width="40" height="40" viewBox="0 0 40 40" fill="none" xmlns="http://www.w3.org/2000/svg">
<path fill-rule="evenodd" clip-rule="evenodd" d="M22.7038 0.121598L38.704 6.79172C39.1422 6.97493 39.5088 7.32326 39.7397 7.77602C39.9707 8.22879 40.0514 8.75728 39.9679 9.26943C39.8844 9.78158 39.6419 10.2449 39.2826 10.5787C38.9234 10.9125 38.4702 11.0956 38.002 11.0962V35.5533C38.002 36.7326 37.5805 37.8637 36.8304 38.6976C36.0802 39.5315 35.0628 40 34.0019 40H16.0017V28.8831C16.0017 28.2935 15.791 27.7279 15.4159 27.311C15.0408 26.894 14.5321 26.6598 14.0017 26.6598C13.4712 26.6598 12.9625 26.894 12.5874 27.311C12.2124 27.7279 12.0017 28.2935 12.0017 28.8831V40H6.00158C4.9407 40 3.92327 39.5315 3.17312 38.6976C2.42296 37.8637 2.00153 36.7326 2.00153 35.5533V22.213C1.51679 22.2134 1.04842 22.0181 0.683506 21.6634C0.318595 21.3087 0.081987 20.8187 0.0176817 20.2846C-0.0466236 19.7505 0.0657508 19.2086 0.333907 18.7597C0.602064 18.3108 1.00775 17.9854 1.47553 17.8441L22.0018 11.6209V4.57724L21.2998 4.28375C20.8167 4.06597 20.4292 3.64715 20.2199 3.11649C20.0105 2.58584 19.9957 1.98527 20.1787 1.4427C20.3618 0.900124 20.7281 0.458424 21.1997 0.211666C21.6714 -0.035092 22.211 -0.0674092 22.7038 0.121598ZM31.0019 24.4364H29.0019C28.4714 24.4364 27.9627 24.6706 27.5876 25.0876C27.2126 25.5046 27.0018 26.0701 27.0018 26.6598C27.0018 27.2494 27.2126 27.815 27.5876 28.2319C27.9627 28.6489 28.4714 28.8831 29.0019 28.8831H31.0019C31.5323 28.8831 32.041 28.6489 32.4161 28.2319C32.7912 27.815 33.0019 27.2494 33.0019 26.6598C33.0019 26.0701 32.7912 25.5046 32.4161 25.0876C32.041 24.6706 31.5323 24.4364 31.0019 24.4364ZM31.0019 15.5429H29.0019C28.4921 15.5435 28.0018 15.7605 27.6311 16.1496C27.2604 16.5386 27.0374 17.0703 27.0075 17.636C26.9776 18.2017 27.1432 18.7587 27.4704 19.1933C27.7976 19.6279 28.2617 19.9072 28.7679 19.9741L29.0019 19.9897H31.0019C31.5117 19.989 32.002 19.772 32.3726 19.383C32.7433 18.994 32.9664 18.4623 32.9963 17.8966C33.0261 17.3309 32.8606 16.7738 32.5334 16.3392C32.2062 15.9047 31.7421 15.6254 31.2359 15.5585L31.0019 15.5429Z" fill="currentColor"/>
</svg>
