<svg width="28" height="30" viewBox="0 0 28 30" fill="none" xmlns="http://www.w3.org/2000/svg">
<path d="M16.8 16.2273H18.9V20.0407L22.316 21.9474L21.266 23.7053L16.8 21.2172V16.2273ZM22.4 9.46591H2.8V24.3409H9.338C8.736 23.1103 8.4 21.731 8.4 20.2841C8.4 17.7736 9.4325 15.3659 11.2704 13.5907C13.1082 11.8155 15.6009 10.8182 18.2 10.8182C19.698 10.8182 21.126 11.1427 22.4 11.7242V9.46591ZM2.8 27.0455C2.05739 27.0455 1.3452 26.7605 0.820101 26.2533C0.294999 25.7461 0 25.0582 0 24.3409V5.40909C0 3.90807 1.246 2.70455 2.8 2.70455H4.2V0H7V2.70455H18.2V0H21V2.70455H22.4C23.1426 2.70455 23.8548 2.98949 24.3799 3.49669C24.905 4.00389 25.2 4.6918 25.2 5.40909V13.658C26.936 15.3618 28 17.7013 28 20.2841C28 22.7946 26.9675 25.2023 25.1296 26.9775C23.2918 28.7527 20.7991 29.75 18.2 29.75C15.526 29.75 13.104 28.7223 11.34 27.0455H2.8ZM18.2 13.7256C16.3992 13.7256 14.6721 14.4166 13.3987 15.6465C12.1254 16.8765 11.41 18.5447 11.41 20.2841C11.41 23.9082 14.448 26.8426 18.2 26.8426C19.0917 26.8426 19.9746 26.673 20.7984 26.3434C21.6222 26.0138 22.3707 25.5307 23.0013 24.9217C23.6318 24.3127 24.1319 23.5896 24.4731 22.7939C24.8144 21.9982 24.99 21.1454 24.99 20.2841C24.99 16.66 21.952 13.7256 18.2 13.7256Z" fill="currentColor"/>
</svg>
