<svg width="18" height="16" viewBox="0 -2.3 18 21" fill="none" xmlns="http://www.w3.org/2000/svg">
<path d="M3.077 14.0439L1.373 15.7533C1.12033 16.0067 0.828333 16.0649 0.497 15.9278C0.165667 15.7907 0 15.5416 0 15.1805V1.62107C0 1.15896 0.154333 0.773419 0.463 0.464453C0.771667 0.155486 1.156 0.000668758 1.616 0H16.385C16.845 0 17.2293 0.154818 17.538 0.464453C17.8467 0.774088 18.0007 1.15963 18 1.62107V12.4239C18 12.8853 17.846 13.2708 17.538 13.5805C17.23 13.8901 16.8457 14.0446 16.385 14.0439H3.077ZM2.65 13.0408H16.385C16.5383 13.0408 16.6793 12.9766 16.808 12.8482C16.9367 12.7198 17.0007 12.5783 17 12.4239V1.62007C17 1.46625 16.936 1.32481 16.808 1.19574C16.68 1.06667 16.539 1.00247 16.385 1.00314H1.615C1.46167 1.00314 1.32067 1.06734 1.192 1.19574C1.06333 1.32414 0.999333 1.46558 1 1.62007V14.6909L2.65 13.0408ZM4 10.5329H10C10.1427 10.5329 10.2617 10.4851 10.357 10.3895C10.4523 10.2939 10.5 10.1745 10.5 10.0314C10.5 9.88826 10.4523 9.76888 10.357 9.67325C10.2617 9.57762 10.1427 9.5298 10 9.5298H4C3.858 9.5298 3.739 9.57762 3.643 9.67325C3.547 9.76888 3.49933 9.88826 3.5 10.0314C3.50067 10.1745 3.54833 10.2939 3.643 10.3895C3.73767 10.4851 3.85667 10.5329 4 10.5329ZM4 7.52353H14C14.1427 7.52353 14.2617 7.47571 14.357 7.38008C14.4523 7.28445 14.5 7.16507 14.5 7.02196C14.5 6.87885 14.4523 6.75947 14.357 6.66384C14.2617 6.56821 14.1427 6.52039 14 6.52039H4C3.858 6.52039 3.739 6.56821 3.643 6.66384C3.547 6.75947 3.49933 6.87885 3.5 7.02196C3.50067 7.16507 3.54833 7.28445 3.643 7.38008C3.73767 7.47571 3.85667 7.52353 4 7.52353ZM4 4.51412H14C14.1427 4.51412 14.2617 4.4663 14.357 4.37067C14.4523 4.27504 14.5 4.15566 14.5 4.01255C14.5 3.86943 14.4523 3.75006 14.357 3.65443C14.2617 3.5588 14.1427 3.51098 14 3.51098H4C3.858 3.51098 3.739 3.5588 3.643 3.65443C3.547 3.75006 3.49933 3.86943 3.5 4.01255C3.50067 4.15566 3.54833 4.27504 3.643 4.37067C3.73767 4.4663 3.85667 4.51412 4 4.51412Z" fill="currentColor"/>
</svg>
