<svg width="18" height="16" viewBox="0 -2.3 18 21" fill="none" xmlns="http://www.w3.org/2000/svg">
<path d="M3.077 14L1.373 15.704C1.12033 15.9567 0.828333 16.0137 0.497 15.875C0.165667 15.7363 0 15.489 0 15.133V1.616C0 1.15533 0.154333 0.771 0.463 0.463C0.771667 0.155 1.15567 0.000666667 1.615 0H16.385C16.845 0 17.229 0.154333 17.537 0.463C17.845 0.771667 17.9993 1.156 18 1.616V12.385C18 12.845 17.8457 13.2293 17.537 13.538C17.2283 13.8467 16.8443 14.0007 16.385 14H3.077ZM4 10.5H10C10.142 10.5 10.2607 10.452 10.356 10.356C10.4513 10.26 10.4993 10.141 10.5 9.999C10.5007 9.857 10.4527 9.73833 10.356 9.643C10.2593 9.54767 10.1407 9.5 10 9.5H4C3.858 9.5 3.73933 9.548 3.644 9.644C3.54867 9.74 3.50067 9.859 3.5 10.001C3.49933 10.143 3.54733 10.2617 3.644 10.357C3.74067 10.4523 3.85933 10.5 4 10.5ZM4 7.5H14C14.142 7.5 14.2607 7.452 14.356 7.356C14.4513 7.26 14.4993 7.141 14.5 6.999C14.5007 6.857 14.4527 6.73833 14.356 6.643C14.2593 6.54767 14.1407 6.5 14 6.5H4C3.858 6.5 3.73933 6.548 3.644 6.644C3.54867 6.74 3.50067 6.859 3.5 7.001C3.49933 7.143 3.54733 7.26167 3.644 7.357C3.74067 7.45233 3.85933 7.5 4 7.5ZM4 4.5H14C14.142 4.5 14.2607 4.452 14.356 4.356C14.4513 4.26 14.4993 4.141 14.5 3.999C14.5007 3.857 14.4527 3.73833 14.356 3.643C14.2593 3.54767 14.1407 3.5 14 3.5H4C3.858 3.5 3.73933 3.548 3.644 3.644C3.54867 3.74 3.50067 3.859 3.5 4.001C3.49933 4.143 3.54733 4.26167 3.644 4.357C3.74067 4.45233 3.85933 4.5 4 4.5Z" fill="currentColor"/>
</svg>
