<svg width="16" height="16" viewBox="-1 -2.3 18 21" fill="none" xmlns="http://www.w3.org/2000/svg">
<path d="M8 0C7.12097 0 6.26168 0.246943 5.5308 0.709602C4.79991 1.17226 4.23026 1.82985 3.89387 2.59923C3.55748 3.3686 3.46946 4.2152 3.64095 5.03196C3.81244 5.84872 4.23574 6.59897 4.8573 7.18782C5.47887 7.77667 6.27079 8.17768 7.13293 8.34015C7.99507 8.50261 8.8887 8.41923 9.70082 8.10055C10.5129 7.78186 11.2071 7.24219 11.6954 6.54977C12.1838 5.85735 12.4444 5.04329 12.4444 4.21053C12.4444 3.09383 11.9762 2.02286 11.1427 1.23323C10.3092 0.443608 9.17874 0 8 0ZM16 16V15.1579C16 13.5945 15.3444 12.0952 14.1776 10.9897C13.0107 9.88421 11.428 9.26316 9.77778 9.26316H6.22222C4.57199 9.26316 2.98934 9.88421 1.82245 10.9897C0.655554 12.0952 0 13.5945 0 15.1579V16H16Z" fill="currentColor"/>
</svg>