<svg width="16" height="16" viewBox="0 -2.3 18 21" fill="none" xmlns="http://www.w3.org/2000/svg">

<!-- Tonjolan Atas (Naik sedikit agar tidak mepet body) -->
<rect x="5" y="-2" width="8" height="4.5" rx="2.2" fill="currentColor"/>

<!-- Lengkungan Transparan -->
<path d="
M4.2 3.2
C4.2 6 6.2 6.8 7.6 6.8
H10.4
C11.8 6.8 13.8 6 13.8 3.2
V4.2
C13.8 7.4 11.8 8 10.4 8
H7.6
C6.2 8 4.2 7.4 4.2 4.2
Z"
fill="white" fill-opacity="0"/>

<!-- PATH ASLI KAMU (TIDAK DIUBAH SAMA SEKALI) -->
<path fill-rule="evenodd" clip-rule="evenodd" d="M3.5 0C2.242 0.07 1.448 0.27 0.879 0.84C0 1.719 0 3.133 0 5.961V11.961C0 14.79 0 16.204 0.879 17.083C1.757 17.961 3.172 17.961 6 17.961H12C14.828 17.961 16.243 17.961 17.121 17.083C18 16.203 18 14.79 18 11.961V5.961C18 3.133 18 1.719 17.121 0.84C16.552 0.27 15.758 0.07 14.5 0V0.463C14.5 1.25865 14.1839 2.02171 13.6213 2.58432C13.0587 3.14693 12.2956 3.463 11.5 3.463H6.5C5.70435 3.463 4.94129 3.14693 4.37868 2.58432C3.81607 2.02171 3.5 1.25865 3.5 0.463V0ZM3.25 6.463C3.25 6.26409 3.32902 6.07332 3.46967 5.93267C3.61032 5.79202 3.80109 5.713 4 5.713H14C14.1989 5.713 14.3897 5.79202 14.5303 5.93267C14.671 6.07332 14.75 6.26409 14.75 6.463C14.75 6.66191 14.671 6.85268 14.5303 6.99333C14.3897 7.13398 14.1989 7.213 14 7.213H4C3.80109 7.213 3.61032 7.13398 3.46967 6.99333C3.32902 6.85268 3.25 6.66191 3.25 6.463ZM4.25 9.963C4.25 9.76409 4.32902 9.57332 4.46967 9.43267C4.61032 9.29202 4.80109 9.213 5 9.213H13C13.1989 9.213 13.3897 9.29202 13.5303 9.43267C13.671 9.57332 13.75 9.76409 13.75 9.963C13.75 10.1619 13.671 10.3527 13.5303 10.4933C13.3897 10.634 13.1989 10.713 13 10.713H5C4.80109 10.713 4.61032 10.634 4.46967 10.4933C4.32902 10.3527 4.25 10.1619 4.25 9.963ZM5.25 13.463C5.25 13.2641 5.32902 13.0733 5.46967 12.9327C5.61032 12.792 5.80109 12.713 6 12.713H12C12.1989 12.713 12.3897 12.792 12.5303 12.9327C12.671 13.0733 12.75 13.2641 12.75 13.463C12.75 13.6619 12.671 13.8527 12.5303 13.9933C12.3897 14.134 12.1989 14.213 12 14.213H6C5.80109 14.213 5.61032 14.134 5.46967 13.9933C5.32902 13.8527 5.25 13.6619 5.25 13.463Z" fill="currentColor"/>

</svg>