<svg width="16" height="16" viewBox="-1.7 -2.3 18 21" fill="none" xmlns="http://www.w3.org/2000/svg">
<path fill-rule="evenodd" clip-rule="evenodd" d="M3.85615 1.49581C3.90171 1.08503 4.10262 0.705044 4.42028 0.42892C4.73793 0.152795 5.14988 2.99999e-05 5.57692 0H9.42308C9.85012 2.99999e-05 10.2621 0.152795 10.5797 0.42892C10.8974 0.705044 11.0983 1.08503 11.1438 1.49581C11.7315 1.50772 12.2385 1.53674 12.6723 1.61414C13.2554 1.71833 13.7515 1.91479 14.1554 2.30623C14.6185 2.75349 14.8169 3.31833 14.9108 3.98809C15 4.63256 15 5.45339 15 6.4707V11.0177C15 12.035 15 12.8558 14.9108 13.501C14.8169 14.1708 14.6185 14.7349 14.1554 15.1829C13.6923 15.6309 13.1092 15.8229 12.4169 15.9137C11.75 16 10.9015 16 9.85 16H5.15C4.09846 16 3.25 16 2.58308 15.9137C1.89077 15.8229 1.30769 15.6309 0.844615 15.1829C0.381539 14.7349 0.183077 14.1708 0.0900001 13.501C8.0237e-08 12.8558 0 12.035 0 11.0177V6.4707C0 5.45339 8.0237e-08 4.63256 0.0900001 3.98735C0.182308 3.31758 0.382308 2.75349 0.844615 2.30549C1.24846 1.91479 1.74462 1.71758 2.32769 1.61414C2.76154 1.53674 3.26923 1.50772 3.85615 1.49581ZM3.85769 2.61209C3.30538 2.624 2.87923 2.65079 2.53615 2.71181C2.10077 2.78921 1.84769 2.91423 1.66077 3.09507C1.44769 3.30121 1.30923 3.58995 1.23308 4.13693C1.15538 4.69805 1.15385 5.44372 1.15385 6.51163V10.9767C1.15385 12.0447 1.15538 12.7896 1.23308 13.3522C1.30923 13.8984 1.44846 14.1872 1.66077 14.3933C1.87385 14.5994 2.17231 14.7334 2.73769 14.8071C3.31769 14.8822 4.08846 14.8837 5.19231 14.8837H9.80769C10.9115 14.8837 11.6815 14.8822 12.2631 14.8071C12.8277 14.7334 13.1262 14.5987 13.3392 14.3933C13.5523 14.1872 13.6908 13.8984 13.7669 13.3514C13.8446 12.7896 13.8462 12.0447 13.8462 10.9767V6.51163C13.8462 5.44372 13.8446 4.69805 13.7669 4.13619C13.6908 3.58995 13.5515 3.30121 13.3392 3.09507C13.1515 2.91423 12.8992 2.78995 12.4638 2.71181C12.1208 2.65079 11.6946 2.624 11.1423 2.61284C11.0931 3.02054 10.8908 3.39655 10.5738 3.66943C10.2569 3.94231 9.84736 4.09306 9.42308 4.09302H5.57692C5.15252 4.09304 4.7429 3.94219 4.42593 3.66915C4.10896 3.39612 3.90673 3.01993 3.85769 2.61209ZM5.57692 1.11628C5.42391 1.11628 5.27717 1.17508 5.16898 1.27975C5.06078 1.38443 5 1.52639 5 1.67442V2.4186C5 2.7267 5.25846 2.97674 5.57692 2.97674H9.42308C9.57609 2.97674 9.72283 2.91794 9.83102 2.81327C9.93922 2.7086 10 2.56663 10 2.4186V1.67442C10 1.52639 9.93922 1.38443 9.83102 1.27975C9.72283 1.17508 9.57609 1.11628 9.42308 1.11628H5.57692ZM3.07692 6.88372C3.07692 6.73569 3.13771 6.59373 3.2459 6.48906C3.35409 6.38439 3.50084 6.32558 3.65385 6.32558H11.3462C11.4992 6.32558 11.6459 6.38439 11.7541 6.48906C11.8623 6.59373 11.9231 6.73569 11.9231 6.88372C11.9231 7.03175 11.8623 7.17371 11.7541 7.27838C11.6459 7.38306 11.4992 7.44186 11.3462 7.44186H3.65385C3.50084 7.44186 3.35409 7.38306 3.2459 7.27838C3.13771 7.17371 3.07692 7.03175 3.07692 6.88372ZM3.84615 9.48837C3.84615 9.34034 3.90694 9.19838 4.01513 9.09371C4.12332 8.98904 4.27007 8.93023 4.42308 8.93023H10.5769C10.7299 8.93023 10.8767 8.98904 10.9849 9.09371C11.0931 9.19838 11.1538 9.34034 11.1538 9.48837C11.1538 9.6364 11.0931 9.77836 10.9849 9.88304C10.8767 9.98771 10.7299 10.0465 10.5769 10.0465H4.42308C4.27007 10.0465 4.12332 9.98771 4.01513 9.88304C3.90694 9.77836 3.84615 9.6364 3.84615 9.48837ZM4.61538 12.093C4.61538 11.945 4.67617 11.803 4.78436 11.6984C4.89256 11.5937 5.0393 11.5349 5.19231 11.5349H9.80769C9.9607 11.5349 10.1074 11.5937 10.2156 11.6984C10.3238 11.803 10.3846 11.945 10.3846 12.093C10.3846 12.2411 10.3238 12.383 10.2156 12.4877C10.1074 12.5924 9.9607 12.6512 9.80769 12.6512H5.19231C5.0393 12.6512 4.89256 12.5924 4.78436 12.4877C4.67617 12.383 4.61538 12.2411 4.61538 12.093Z" fill="currentColor"/>
</svg>
