<svg width="40" height="40" viewBox="0 0 40 40" fill="none" xmlns="http://www.w3.org/2000/svg">
  <path
    fill-rule="evenodd"
    clip-rule="evenodd"
    d="M11 10V9C11 6.61305 11.9482 4.32387 13.636 2.63604C15.3239 0.948211 17.6131 0 20 0C22.3869 0 24.6761 0.948211 26.364 2.63604C28.0518 4.32387 29 6.61305 29 9V10H34C35.104 10 36 10.898 36 12.014V36.016C36 38.216 34.21 40 32.012 40H7.988C6.93101 40 5.91725 39.5804 5.16947 38.8334C4.42169 38.0863 4.00106 37.073 4 36.016V12.016C4 10.9 4.89 10 6 10H11ZM14 10H26V9C26 7.4087 25.3679 5.88258 24.2426 4.75736C23.1174 3.63214 21.5913 3 20 3C18.4087 3 16.8826 3.63214 15.7574 4.75736C14.6321 5.88258 14 7.4087 14 9V10ZM11 10V18H14V10H11ZM26 10V18H29V10H26Z"
    fill="currentColor"
  />
</svg>
